<!DOCTYPE svg PUBLIC "-//W3C//DTD SVG 1.1//EN" "http://www.w3.org/Graphics/SVG/1.1/DTD/svg11.dtd">

<!-- Uploaded to: SVG Repo, www.svgrepo.com, Transformed by: SVG Repo Mixer Tools -->
<svg height="800px" width="800px" version="1.1" id="Layer_1" xmlns="http://www.w3.org/2000/svg" xmlns:xlink="http://www.w3.org/1999/xlink" viewBox="-51.2 -51.2 614.40 614.40" xml:space="preserve" fill="#000000">

<g id="SVGRepo_bgCarrier" stroke-width="0">

<rect x="-51.2" y="-51.2" width="614.40" height="614.40" rx="92.16" fill="#6B7D99" strokewidth="0"/>

</g>

<g id="SVGRepo_iconCarrier"> <g> <path style="fill:#3665B0;" d="M290.068,512.001c-9.426,0-17.067-7.642-17.067-17.067V329.486c0-9.426,7.642-17.067,17.067-17.067 s17.067,7.642,17.067,17.067v165.446C307.135,504.359,299.493,512.001,290.068,512.001z"/> <path style="fill:#3665B0;" d="M386.952,435.141c-29.849,0-54.134-24.285-54.134-54.135V246.603 c0-9.426,7.642-17.067,17.067-17.067s17.067,7.642,17.067,17.067v134.404c0,11.028,8.972,20,19.999,20s20-8.973,20-20v-62.567 c0-9.426,7.642-17.067,17.067-17.067h42.754c9.426,0,17.067,7.642,17.067,17.067s-7.642,17.067-17.067,17.067h-25.687v45.499 C441.087,410.855,416.801,435.141,386.952,435.141z"/> </g> <g> <path style="fill:#143466;" d="M327.778,218.495l-53.767-149.29c-6.03-16.742,14.64-30.478,27.717-18.247l105.787,98.968 c24.792,23.196,12.985,64.78-20.309,71.474l-40.007,8.043C338.868,231.116,330.633,226.424,327.778,218.495z"/> <path style="fill:#143466;" d="M221.932,512.001c-9.426,0-17.067-7.642-17.067-17.067V329.486c0-9.426,7.642-17.067,17.067-17.067 s17.067,7.642,17.067,17.067v165.446C238.999,504.359,231.359,512.001,221.932,512.001z"/> <path style="fill:#143466;" d="M125.049,435.141c-29.849,0-54.135-24.285-54.135-54.135v-45.5H45.227 c-9.426,0-17.067-7.642-17.067-17.067s7.642-17.067,17.067-17.067h42.754c9.426,0,17.067,7.642,17.067,17.067v62.566 c0,11.028,8.973,20,20,20s19.999-8.973,19.999-20V246.603c0-9.426,7.642-17.067,17.067-17.067s17.067,7.642,17.067,17.067v134.404 C179.183,410.855,154.898,435.141,125.049,435.141z"/> </g> <path style="fill:#2672ED;" d="M164.801,229.446l-40.006-8.043c-33.283-6.693-45.107-48.273-20.308-71.474l105.785-98.968 c12.99-12.151,33.786,1.397,27.717,18.247l-53.766,149.287C181.365,226.429,173.125,231.115,164.801,229.446z"/> <path style="fill:#66A1FF;" d="M256,352.699c-28.247,0-56.493-10.42-78.504-31.264c-30.18-28.579-40.422-72.762-26.09-112.558 L216.69,27.61c13.265-36.829,65.367-36.798,78.62,0l65.284,181.266c14.333,39.797,4.092,83.979-26.09,112.559 C312.494,342.279,284.247,352.699,256,352.699z"/> <path style="fill:#2672ED;" d="M360.595,208.876L295.311,27.611C288.683,9.21,272.342,0.003,256,0.001v352.698 c28.246,0,56.493-10.42,78.504-31.264C364.685,292.856,374.926,248.673,360.595,208.876z"/> <g> <circle style="fill:#F5F9FF;" cx="209.334" cy="277.319" r="22.578"/> <circle style="fill:#F5F9FF;" cx="302.669" cy="277.319" r="22.578"/> </g> </g>

</svg>